<?xml version="1.0" encoding="UTF-8"?>
<svg width="116px" height="68px" viewBox="0 0 116 68" version="1.1" xmlns="http://www.w3.org/2000/svg" xmlns:xlink="http://www.w3.org/1999/xlink">
    <title>Good Give Fotter Logo</title>
    <g id="Good-Give-Fotter-Logo" stroke="none" stroke-width="1" fill="none" fill-rule="evenodd">
        <g id="Group-2-Copy">
            <path d="M90.6765376,21.6318073 C89.7133373,22.3587018 88.8317096,23.1975796 87.8552488,23.8993676 C86.9816578,24.5302196 86.2037038,25.2618963 85.4024433,25.9788279 C84.4408503,26.8384285 83.778625,27.860624 82.9990636,28.8880002 C82.2829923,29.8308908 81.4118124,30.7024469 80.8243285,31.7346053 C80.5615279,32.1984787 80.2026886,32.6639463 80.0238717,33.1672729 C79.9840899,33.2812487 79.7586601,34.0651312 79.658603,34.4995144 C79.6722654,34.537772 79.6770874,34.5820074 79.6666397,34.632619 C79.6541828,34.692795 79.6429314,34.7529711 79.6300726,34.8127486 C79.7072251,34.9378828 79.658603,35.0674008 79.5645734,35.143119 C79.3592353,36.202775 79.2145745,37.250874 79.2495342,38.3408173 C79.276859,39.1661455 79.2298442,39.8870623 78.7882267,40.6012043 C78.5901217,40.9208147 77.9387459,41.4149755 77.5517781,41.0551149 C76.9976466,40.5422238 76.8409307,39.9396665 76.8365105,39.2115764 C76.8304829,38.0710215 76.7850755,36.845981 76.6006329,35.7197727 C76.5138364,35.1941291 76.4824932,34.5632771 76.1469603,34.1269013 C75.491968,33.2728799 74.6360579,34.0113314 73.9955317,34.4572716 C73.0009882,35.1490967 72.4094859,36.2494014 71.7589138,37.2166016 C71.3884213,37.7665547 70.9640827,38.225646 70.630559,38.8122626 C70.371375,39.2701584 70.1013413,39.7882301 69.6786101,40.1186005 C68.7592099,40.8367277 66.6632346,40.7107964 67.1378026,39.130279 C67.357205,38.4029859 68.1689132,37.6497893 68.6571436,37.1121902 C69.0461206,36.6849802 69.3430773,36.1872328 69.656911,35.7062231 C70.0318238,35.132359 70.5690782,34.7202927 70.8853229,34.1069754 C71.0842316,33.7188201 71.2417512,33.3258826 71.4880765,32.9628339 C71.7440459,32.5810548 72.6521947,32.0195447 71.7086844,32.0191462 C71.1384794,32.0191462 70.6783775,32.4618983 70.2222939,32.7460408 C69.5950283,33.1381812 69.013572,33.6371242 68.4228734,34.0814704 C67.4014069,34.8490136 66.4651296,35.6938691 65.5007238,36.5275661 C65.0976825,36.8766668 64.0167443,37.8546269 63.3786291,37.5884177 C62.9185272,37.3979267 62.4636491,36.6327745 62.5215135,36.1258613 C62.6259908,35.2244164 63.3762181,34.5588934 64.015137,33.9993759 C64.9052032,33.2218697 65.9130073,32.5655127 66.8705819,31.871695 C67.3676527,31.5106388 67.853874,31.1360331 68.3581778,30.7853384 C68.6020921,30.6159688 68.8472119,30.4505843 69.0903226,30.276831 C69.2237321,30.181187 69.9992751,29.6607241 69.5849824,29.5949689 C69.351114,29.5602979 69.0951446,29.4419384 68.8656964,29.3937179 C68.5080626,29.3179997 68.0021514,29.4598717 67.6694313,29.5475454 C67.0923952,29.7001773 66.5334417,29.9141808 65.9560037,30.0700008 C64.7850543,30.3864231 63.6386169,30.8403337 62.5094584,31.276311 C61.9348333,31.4978863 61.3598063,31.8143086 60.7237003,31.6955506 C60.1551027,31.5883496 60.0028069,30.8100464 60.1382256,30.3425863 C60.40625,29.4212156 61.015433,29.3534677 61.754409,28.9222726 C62.1526282,28.6891403 62.4580234,28.3615595 62.8835675,28.1527368 C63.4722569,27.8634136 64.1284547,27.6521997 64.7521038,27.4477606 C65.2495764,27.2851658 65.6775315,26.979105 66.1774152,26.8169086 C66.7299393,26.6375761 67.256746,26.444694 67.7907857,26.2099676 C68.3907265,25.9473451 68.7423328,25.6576234 69.1972109,25.2132773 C69.5753383,24.8462433 70.0591486,24.5868089 70.4834872,24.2743718 C70.892556,23.9722961 71.3635075,22.8580433 71.4619572,22.3818158 C71.6363539,21.5341707 71.1899144,20.9387867 70.5843479,20.4067668 C69.6974964,19.6296592 68.7005419,19.1582139 67.7285012,18.5122182 C66.982694,18.0148693 66.3586431,17.3274279 66.0496314,16.4853621 C65.8422842,15.9194683 65.8772439,14.8793396 66.5495151,14.6123334 C66.730743,14.5394048 66.9810867,14.5776624 67.1317751,14.7016011 C67.5440586,15.0415359 67.9177658,15.2969851 68.4076036,15.520553 C68.8833772,15.7377447 69.2884276,16.0928231 69.7625938,16.3211732 C70.3870466,16.6228503 71.0597196,16.8209132 71.7110954,17.0512558 C72.9362926,17.484045 74.1273338,17.9586785 75.3822669,18.3149524 C76.8176242,18.7214395 78.0834068,18.7270187 79.5537239,18.6190207 C81.0381051,18.5094286 82.5252993,17.5115427 83.6990615,16.6842219 C84.9616295,15.7955296 86.1112816,14.7494231 87.1998546,13.662668 C88.084697,12.7791564 89.0611579,11.9024195 89.8170109,10.9136995 C90.1159767,10.5231531 90.5535759,10.1505399 90.905584,9.80582293 C91.243126,9.47545255 91.5135615,9.09805719 91.788819,8.72345146 C91.243126,7.44182161 90.5640236,6.20681822 89.7229814,5.0423523 C88.9667265,4.20108345 88.1293007,3.44031499 87.2187409,2.78794308 C86.3089848,2.13596969 85.3357386,1.59239285 84.297395,1.17036362 C83.2602569,0.747537353 82.1560122,0.443867594 80.98225,0.269715777 C72.5939285,-1.18686292 63.0013054,3.37934193 58.7808244,10.9906132 C57.24541,8.70751079 55.7112011,6.04342636 53.1776266,4.37244565 C52.2586282,3.60809054 51.2259103,2.86963901 50.0770619,2.20929677 C49.2159279,1.71473749 48.2876873,1.26600764 47.2923401,0.902560366 C38.9582665,-1.22751163 29.566963,2.9122803 25.033452,9.9050536 C25.3653684,10.2222729 25.7467105,10.5598166 26.017146,10.9136995 C26.7738027,11.9024195 27.7498618,12.7791564 28.6347041,13.662668 C29.7244827,14.7494231 30.8733311,15.7955296 32.1350954,16.6842219 C33.3088576,17.5115427 34.7960517,18.5094286 36.2812367,18.6190207 C37.7519556,18.7270187 39.0173364,18.7214395 40.4526937,18.3149524 C41.7068231,17.9586785 42.8978643,17.484045 44.1230615,17.0512558 C44.7752409,16.8209132 45.4483158,16.6228503 46.0723668,16.3211732 C46.5453274,16.0928231 46.9523871,15.7377447 47.4269551,15.520553 C47.9171947,15.2969851 48.2913038,15.0415359 48.7031855,14.7016011 C48.8550794,14.5776624 49.1046194,14.5394048 49.2858473,14.6123334 C49.9573149,14.8793396 49.9918727,15.9194683 49.7849273,16.4853621 C49.4759156,17.3274279 48.8526684,18.0148693 48.1056557,18.5122182 C47.1340168,19.1582139 46.1366605,19.6296592 45.2514163,20.4067668 C44.6442425,20.9387867 44.1990085,21.5341707 44.3734052,22.3818158 C44.4710513,22.8580433 44.9416009,23.9722961 45.3522771,24.2743718 C45.7762138,24.5868089 46.2600241,24.8462433 46.6373478,25.2132773 C47.0926277,25.6576234 47.4438322,25.9473451 48.0445767,26.2099676 C48.5790182,26.444694 49.1046194,26.6375761 49.6579472,26.8169086 C50.1574291,26.979105 50.5849823,27.2851658 51.0828568,27.4477606 C51.7057022,27.6521997 52.3627037,27.8634136 52.9513931,28.1527368 C53.3765353,28.3615595 53.6815286,28.6891403 54.0801497,28.9222726 C54.8195275,29.3534677 55.4283087,29.4212156 55.6963331,30.3425863 C55.8325555,30.8100464 55.679456,31.5883496 55.1104566,31.6955506 C54.4747524,31.8143086 53.8993236,31.4978863 53.3251003,31.276311 C52.1963437,30.8403337 51.0503081,30.3864231 49.878555,30.0700008 C49.3019207,29.9141808 48.7421635,29.7001773 48.1659311,29.5475454 C47.833211,29.4598717 47.326898,29.3179997 46.969666,29.3937179 C46.7402178,29.4419384 46.4838466,29.5602979 46.2491745,29.5949689 C45.8360873,29.6607241 46.6104248,30.181187 46.7442361,30.276831 C46.9869449,30.4505843 47.2324666,30.6159688 47.4767827,30.7853384 C47.9814884,31.1360331 48.4677097,31.5106388 48.9647805,31.871695 C49.9223551,32.5655127 50.9301592,33.2218697 51.8190199,33.9993759 C52.4591443,34.5588934 53.2089698,35.2244164 53.3126434,36.1258613 C53.372517,36.6327745 52.9160315,37.3979267 52.4555278,37.5884177 C51.8182162,37.8546269 50.7376799,36.8766668 50.3350405,36.5275661 C49.3706347,35.6938691 48.4339555,34.8490136 47.412489,34.0814704 C46.8217904,33.6371242 46.2403341,33.1381812 45.6122648,32.7460408 C45.1565831,32.4618983 44.6964811,32.0191462 44.1258744,32.0191462 C43.1831677,32.0195447 44.0905128,32.5810548 44.3480895,32.9628339 C44.5928075,33.3258826 44.7503271,33.7188201 44.9500395,34.1069754 C45.2654806,34.7202927 45.8039405,35.132359 46.1772459,35.7062231 C46.4914815,36.1872328 46.7880362,36.6849802 47.1778169,37.1121902 C47.6652437,37.6497893 48.4777556,38.4029859 48.6971579,39.130279 C49.1721278,40.7107964 47.0769562,40.8367277 46.1563504,40.1186005 C45.7332174,39.7882301 45.4639874,39.2701584 45.2044015,38.8122626 C44.870476,38.225646 44.4461375,37.7665547 44.0764486,37.2166016 C43.4250728,36.2494014 42.8327669,35.1490967 41.8398307,34.4572716 C41.1985009,34.0113314 40.3433944,33.2728799 39.6875984,34.1269013 C39.3520656,34.5632771 39.321526,35.1941291 39.2343277,35.7197727 C39.0494832,36.845981 39.0040758,38.0710215 38.9980483,39.2115764 C38.9940299,39.9396665 38.8365103,40.5422238 38.2831824,41.0551149 C37.8958128,41.4149755 37.2448389,40.9208147 37.046332,40.6012043 C36.6047145,39.8870623 36.5589052,39.1661455 36.5850245,38.3408173 C36.6203861,37.250874 36.4753234,36.202775 36.2711908,35.143119 C36.1763576,35.0674008 36.1281373,34.9378828 36.2048879,34.8127486 C36.1932347,34.7529711 36.1799741,34.692795 36.167919,34.632619 C36.1586768,34.5820074 36.1618915,34.537772 36.1763576,34.4995144 C36.0758986,34.0651312 35.8504688,33.2812487 35.8102852,33.1672729 C35.6334775,32.6639463 35.2730308,32.1984787 35.0102302,31.7346053 C34.42355,30.7024469 33.5519682,29.8308908 32.8354951,28.8880002 C32.0559337,27.860624 31.3949139,26.8384285 30.4325173,25.9788279 C29.6312568,25.2618963 28.8537046,24.5302196 27.97931,23.8993676 C27.0036528,23.1975796 26.1216233,22.3587018 25.1588248,21.6318073 C24.2964853,20.9806309 23.4361549,20.3334397 22.562564,19.7013922 C22.6678449,20.2405853 22.7807608,20.7905384 22.8402325,21.3616129 C23.0355247,22.4762643 23.3131932,23.5626209 23.6607811,24.6258636 C25.0487218,28.8796313 27.5501494,32.7528155 30.3846988,36.4247488 C31.0919297,37.3433299 31.8212616,38.2483614 32.5594339,39.1454226 C34.6071889,41.0539193 36.1413979,43.7176052 38.4443186,45.2403377 C43.4797225,48.0941161 47.4675405,51.6911282 51.4356686,55.3817918 C52.2296961,56.1194463 53.022518,56.8610859 53.822573,57.6019286 C55.7112011,58.9393507 57.629565,62.3638051 59.1645776,61.2224532 C60.2005101,60.576059 61.221173,59.9133257 62.2277715,59.2362457 C63.2347719,58.5607598 64.2265026,57.8701303 65.2049726,57.1667483 C75.2810043,47.5230416 87.5594976,39.1514004 92.3726863,26.0087167 C92.64272,24.9725732 92.8705608,23.9268652 93.0505833,22.8771721 C93.237035,21.7800555 93.3656225,20.6797508 93.4383548,19.5822357 C93.3909381,19.6161096 93.3431197,19.648788 93.2957031,19.6834589 C92.4140754,20.3214842 91.5473157,20.9750517 90.6765376,21.6318073" id="Fill-103" fill="#FF9E00"></path>
            <g id="Group-107" transform="translate(57.1669, 10.8132)">
                <path d="M0.000132481365,50.7073848 C0.0117857183,51.2673008 0.435320606,51.6510724 0.985031921,51.6837508 C1.35632816,51.7056692 1.66654536,51.3597567 1.66654536,51.0078664 C1.66654536,50.6225007 1.35592632,50.3539004 0.985031921,50.331982 C1.17911859,50.343539 1.29283811,50.4698688 1.36034652,50.6384414 C1.30328584,50.4965694 1.36516855,50.8090065 1.36315937,50.7073848 C1.35552449,50.3391553 1.0589697,50.0315004 0.681645925,50.0315004 C0.315975386,50.0315004 -0.00750239802,50.3391553 0.000132481365,50.7073848" id="Fill-104" fill="#FFFFFE"></path>
                <path d="M58.5813565,19.9422907 C57.9335972,18.9734965 56.5436473,19.4959519 55.8440513,20.0427169 C54.3214956,21.2326879 53.1698343,22.5350406 51.6448676,23.5640108 C51.5556601,23.5476717 51.4684617,23.5126022 51.3808615,23.4803223 C51.4568085,20.8333741 51.1988299,18.1836363 50.6213919,15.6008493 C50.7310931,15.5430644 50.8042272,15.4541951 50.7929758,15.3262712 C51.5833868,14.9711928 52.2853938,13.9804802 52.8993989,12.9212227 C53.5041617,12.095496 54.0594987,11.1147463 54.391415,10.2427917 C54.4203472,10.1993533 54.4496812,10.1511328 54.4778097,10.1112811 C55.1737892,9.12295962 56.4938197,7.41451834 55.1295873,6.45409299 C54.17362,5.78099821 53.0657589,6.76453753 52.6108808,7.52411044 C51.6211593,9.17715789 51.0180038,10.8031062 49.9692125,12.3063114 C49.8844252,12.3230491 49.796825,12.3194624 49.7080193,12.320658 C49.3757011,11.3311409 48.9923498,10.35876 48.5643947,9.4035154 C48.7532575,9.09067976 48.7693309,8.48692689 48.6785161,8.29125517 C47.8129618,6.42659533 47.1860981,4.27859008 46.0139432,2.60163163 C45.8278932,2.27086273 45.6129111,1.9536434 45.375828,1.75438503 C45.3288132,1.71493187 45.2769764,1.68544163 45.2279524,1.64798106 C44.6207786,1.02868604 43.8894375,0.519381643 42.9652153,0.184627579 C42.8342168,0.136805569 42.723712,0.143181837 42.6324953,0.183432028 C42.6107961,0.161912124 42.5911062,0.137602603 42.5702107,0.116082699 C42.3560323,-0.0943341417 42.1161363,0.011671312 41.9541965,0.193394947 C41.6572399,0.346425377 41.5632103,0.79515523 41.600581,1.14624848 C41.3566667,2.29238263 41.4828432,3.58955463 42.1181455,4.56552214 C42.4215315,5.0333808 42.7446074,5.311944 43.1432285,5.58373242 C43.2039057,5.67180462 43.2609664,5.76266644 43.3268675,5.84675347 C44.3692294,7.17182164 45.9279503,8.38968881 47.3291516,9.30946545 C47.3938472,9.35210674 47.4525152,9.3724311 47.5075667,9.38319105 C47.9463713,10.2766656 48.3389649,11.1852838 48.6853473,12.1086471 C48.5447048,12.0524562 48.4036604,11.989092 48.2610087,11.9189531 C47.5127905,11.2873041 46.596605,10.6221796 45.6551038,10.0909568 C45.5727275,10.0323748 45.4887438,9.97419138 45.3999381,9.91959459 C45.2384002,9.8199654 45.0475282,9.74026205 44.8429938,9.67012311 C43.3578088,8.97829804 41.9176295,8.74835388 41.0850258,9.63704622 C40.9789411,9.66813052 40.8676326,9.69762076 40.7740049,9.73468282 C40.465395,9.85623043 40.2532258,10.1499373 40.4882997,10.4460352 C40.5200447,10.4850898 40.5586209,10.5265356 40.5919733,10.5663873 C40.5851421,10.5819294 40.5694705,10.5914938 40.5630411,10.607833 C40.5397346,10.6632268 40.5176337,10.7186207 40.4943272,10.773616 C40.3890462,11.0338474 40.5497805,11.2267295 40.7410544,11.3801585 C42.5320363,12.8084425 45.4983879,14.6208966 48.2594014,14.9560492 C48.749641,15.1214336 49.187642,15.2493575 49.549696,15.3362342 C49.5721988,15.3649274 49.5991218,15.3920265 49.6188117,15.4223138 C49.6485476,15.4685417 49.6887312,15.5071978 49.7377551,15.5406733 C50.32765,17.9700313 50.6045148,20.461558 50.5599111,22.9590624 C50.435342,22.8462822 50.3127821,22.7239376 50.1922314,22.5936226 C49.7228872,21.7384056 49.1076767,20.7907328 48.421743,19.9598254 C48.3662897,19.8757384 48.3096308,19.7920499 48.2461408,19.7087599 C48.1316176,19.5585191 47.9825365,19.4158501 47.8165784,19.2775648 C46.6817942,18.1027374 45.4212354,17.3742488 44.3226165,17.9070657 C44.2121116,17.8990953 44.0979903,17.8859443 43.9955222,17.8867413 C43.6640077,17.8915235 43.3602198,18.0895863 43.472332,18.4490484 C43.4871999,18.4976675 43.5097027,18.5494747 43.5245706,18.5988907 C43.5121137,18.6108462 43.4956385,18.6140344 43.4827797,18.6263884 C43.4413906,18.6702252 43.4004034,18.7148591 43.3590143,18.7571019 C43.1657313,18.962338 43.2465003,19.200651 43.3702657,19.4118649 C44.5235343,21.3821317 46.6355831,24.1318972 49.0903977,25.4278737 C49.4874114,25.7562515 49.850671,26.0328221 50.156468,26.2420434 C50.1673175,26.2767143 50.1829891,26.3125808 50.1898203,26.3476503 C50.2014736,26.4070293 50.2356296,26.4644157 50.2770187,26.519411 C49.9025078,29.1583889 49.1595135,31.7706661 48.0359807,34.290089 C47.9335126,34.0991995 47.8410903,33.8947604 47.7599195,33.6751777 C47.6542367,32.7063835 47.4484968,31.5997025 47.1322521,30.5719278 C47.1133658,30.4726971 47.0928722,30.3734664 47.0655473,30.2722432 C47.0169252,30.0909181 46.9345489,29.9032167 46.8344918,29.7119287 C46.234551,28.197565 45.3472976,27.0494383 44.1269224,27.1283446 C44.027669,27.0781315 43.9268082,27.0231362 43.8331805,26.9864726 C43.5245706,26.864925 43.1669368,26.9338684 43.1331826,27.3084742 C43.1275569,27.3582888 43.1275569,27.4144796 43.1247441,27.4662868 C43.1082688,27.4734601 43.0909899,27.4690764 43.0749164,27.4762497 C43.0198649,27.5005592 42.9644116,27.5260643 42.9097619,27.5507724 C42.6537926,27.6675378 42.63571,27.9178063 42.6694642,28.1597059 C42.9812887,30.4173033 43.8805971,33.7560766 45.6543002,35.8817649 C45.8966071,36.3348784 46.1256535,36.7266204 46.3285806,37.0358694 C46.3241604,37.0721344 46.3261695,37.1115875 46.3193383,37.1454615 C46.2992465,37.2438951 46.3277769,37.3590664 46.3828284,37.4714482 C45.0061391,39.7669046 43.3272693,41.8236495 41.4181476,43.6177719 C41.3261272,43.3412013 41.2698702,43.0315538 41.2345087,42.7063641 C41.3663108,41.7411566 41.4362302,40.6169408 41.3791695,39.5445323 C41.3831879,39.4437075 41.3884118,39.3428828 41.3868044,39.2384714 C41.3831879,39.0503715 41.3470227,38.847925 41.2963914,38.6387037 C41.0818111,37.0259064 40.5007566,35.6992442 39.2968566,35.4852407 C39.2124711,35.4127107 39.1280856,35.3361955 39.0453075,35.277215 C38.7760775,35.0859269 38.4108088,35.0663996 38.2878471,35.4234706 C38.2713718,35.4700971 38.2577094,35.5250924 38.241636,35.5753055 C38.2239552,35.576501 38.2090873,35.5689292 38.1906028,35.5725159 C38.131533,35.5824788 38.0724631,35.5940358 38.0133932,35.6051943 C37.7345192,35.6566029 37.6585723,35.8961115 37.6316493,36.1392067 C37.3869313,38.4039773 37.4496177,41.858719 38.6551249,44.345065 C38.7800959,44.8432109 38.9082815,45.2787897 39.0296359,45.6270933 C39.0280285,45.6310785 39.026823,45.6346651 39.0256175,45.6382518 C36.675682,47.4228098 34.0685716,48.8578686 31.3011288,49.9131409 C31.3047453,49.9051706 31.3071563,49.8972002 31.3115765,49.8888314 C31.9312072,49.1328451 32.5805738,48.2086848 33.0933162,47.2630045 C33.1511806,47.1797145 33.2082413,47.096026 33.2608817,47.0055627 C33.3573223,46.8437649 33.4336711,46.6520784 33.499974,46.4480378 C34.1621993,44.9591793 34.3631172,43.5269101 33.446128,42.7219063 C33.4127757,42.6170964 33.380227,42.5083013 33.3408471,42.4146498 C33.2110541,42.1121756 32.9100791,41.9081351 32.6179445,42.1488392 C32.5781628,42.1799235 32.5375774,42.2193766 32.4981975,42.2544461 C32.4825259,42.2460773 32.4728818,42.2325277 32.4560047,42.2253544 C32.4005514,42.204233 32.3430889,42.1835101 32.2868319,42.1611932 C32.0228258,42.0627596 31.831552,42.227347 31.6816672,42.4206276 C30.2824751,44.2286981 28.5244437,47.2115959 28.2499899,49.9569777 C28.1294391,50.3395538 28.0362132,50.6763005 27.9614718,50.9819628 C26.649478,51.3242887 25.3117668,51.5773468 23.9599913,51.7503031 C24.0516099,52.2859096 24.0620576,52.8354642 23.9889235,53.3483552 C25.3487357,53.1742034 26.6872506,52.9195512 27.9932168,52.5788194 C28.4059021,53.3100976 29.3731208,53.9521081 30.407446,54.5108286 C31.2525066,55.0930615 32.2558905,55.6191036 33.1415365,55.9283526 C33.186944,55.9546547 33.2359679,55.9833479 33.2765533,56.0104471 C34.2891794,56.6787596 36.0407815,57.9472384 36.9774607,56.5731527 C37.6340603,55.6095392 36.617014,54.5339425 35.8406673,54.1003563 C34.1710397,53.1682257 32.5375774,52.6071141 31.0114052,51.6227777 C34.1770673,50.4451607 37.1197105,48.77418 39.7356613,46.6735983 C40.465395,47.1271103 41.6709023,47.1781205 42.8868573,47.1195385 C43.9147532,47.1805116 45.0475282,47.1119667 45.9669284,46.9186861 C46.0195689,46.9198816 46.0766295,46.917092 46.1252517,46.9198816 C47.3395993,46.9669066 49.5022794,47.1470362 49.5802355,45.4900036 C49.6348852,44.3287258 48.2027425,43.9345927 47.3126763,43.9652785 C45.5514302,44.0254545 43.9798506,44.3362976 42.3250909,44.345065 C44.2253722,42.4369668 45.8929906,40.2714268 47.2761093,37.8867026 C48.0942469,38.1477311 49.2724293,37.9106136 50.4345383,37.563904 C51.4471644,37.3781952 52.5301118,37.0410501 53.3751724,36.6349615 C53.4262055,36.622209 53.481257,36.6074639 53.5286736,36.598298 C54.7205185,36.3540072 56.8610976,36.0124784 56.5360125,34.384936 C56.3069661,33.2447796 54.822183,33.2045294 53.9642636,33.4460305 C52.101353,33.9728697 50.5362028,34.742804 48.7311565,35.1209964 C48.7247272,35.1162142 48.7195033,35.1094394 48.7138776,35.1046572 C49.918983,32.456912 50.7049738,29.6840325 51.0975673,26.8709028 C51.2048575,26.8481873 51.2876356,26.7880113 51.3205862,26.6760281 C52.1869441,26.626612 53.2003738,25.9527202 54.1579484,25.1819888 C55.0218953,24.6284491 55.8950844,23.9103219 56.519939,23.2145117 C56.5629354,23.1830288 56.6083429,23.1487564 56.6489283,23.1224543 C57.6567324,22.4473669 59.5067842,21.3243468 58.5813565,19.9422907" id="Fill-106" fill="#477186"></path>
            </g>
            <path d="M0.251839078,30.7554496 C0.900000153,29.7866554 2.2895482,30.3091109 2.98914425,30.8558758 C4.51210177,32.0458468 5.66336121,33.3481996 7.18792608,34.3771698 C7.27753545,34.3608306 7.36473381,34.3257611 7.45193217,34.2934813 C7.37678888,31.6465331 7.63476744,28.9967952 8.21220542,26.4140082 C8.10170059,26.3562233 8.02937015,26.2673541 8.03981788,26.1394302 C7.24980878,25.7843518 6.54699804,24.7936391 5.93339484,23.7343816 C5.32863203,22.9086549 4.77450052,21.9279052 4.44218235,21.0559506 C4.41325018,21.0125123 4.38311249,20.9642917 4.35498399,20.9244401 C3.6594063,19.9361185 2.33937583,18.2276773 3.70320639,17.2672519 C4.65917366,16.5941571 5.76783851,17.5776965 6.22231475,18.3372694 C7.21203622,19.9903168 7.81478986,21.6162651 8.86398302,23.1194703 C8.94877036,23.136208 9.03677239,23.1326213 9.12477442,23.1338169 C9.4570926,22.1442998 9.84084574,21.171919 10.2688008,20.2166743 C10.0803399,19.9038387 10.0634628,19.3000858 10.1546795,19.1044141 C11.0202337,17.2397543 11.648303,15.091749 12.8196542,13.4147906 C13.0053023,13.0840217 13.2206863,12.7668023 13.4577694,12.567544 C13.505186,12.5280908 13.556621,12.4986006 13.6060468,12.46114 C14.2124169,11.841845 14.9441599,11.3325406 15.8679803,10.9977865 C15.9993806,10.9499645 16.1094835,10.9563408 16.2011021,10.996591 C16.2219976,10.9750711 16.2416875,10.9507615 16.2629848,10.9292416 C16.4775651,10.7188248 16.7170592,10.8248302 16.8794009,11.0065539 C17.1755538,11.1595843 17.2695834,11.6083142 17.2330163,11.9594074 C17.476127,13.1055416 17.3499505,14.4027136 16.71505,15.3786811 C16.4112622,15.8465397 16.0885881,16.1251029 15.689967,16.3968914 C15.6296917,16.4849636 15.5722291,16.5758254 15.5059262,16.6599124 C14.4639661,17.9849806 12.9052452,19.2028477 11.5032403,20.1226244 C11.4389465,20.1652657 11.3810822,20.18559 11.3264325,20.19635 C10.8868242,21.0898245 10.4942307,21.9984427 10.1478483,22.921806 C10.2888926,22.8656151 10.4295351,22.802251 10.5721868,22.732112 C11.3196013,22.100463 12.2365905,21.4353385 13.1780917,20.9041157 C13.2600662,20.8455338 13.3440499,20.7873503 13.4336592,20.7327535 C13.5947954,20.6331243 13.7852655,20.553421 13.9906036,20.483282 C15.4753867,19.791457 16.9147624,19.5615128 17.7477679,20.4502051 C17.8542544,20.4812895 17.9651611,20.5107797 18.0599943,20.5478418 C18.3678005,20.6693894 18.5803716,20.9630962 18.3452977,21.2591941 C18.3135527,21.2982488 18.2745746,21.3396945 18.2408204,21.3795462 C18.2484553,21.3950883 18.2633232,21.4046527 18.2701544,21.4209919 C18.2938627,21.4763858 18.31516,21.5317796 18.3384665,21.5867749 C18.4445511,21.8470063 18.2830132,22.0398884 18.0921412,22.1933174 C16.3011592,23.6216014 13.3344058,25.4340555 10.5737942,25.7692081 C10.0839564,25.9345926 9.64515173,26.0625164 9.28349955,26.1493931 C9.26059491,26.1780863 9.23447559,26.2051854 9.2143838,26.2354727 C9.18504979,26.2817007 9.14406254,26.3203568 9.09423491,26.3538322 C8.50514369,28.7831903 8.22868069,31.2747169 8.27368629,33.7722214 C8.39785354,33.6594411 8.52001161,33.5370965 8.64096417,33.4067815 C9.1099065,32.5515646 9.72511705,31.6038918 10.4114525,30.7729844 C10.4669059,30.6888973 10.5239665,30.6052088 10.5870547,30.5219188 C10.7011761,30.371678 10.8502572,30.229009 11.0162153,30.0907237 C12.1518032,28.9158963 13.4123619,28.1874077 14.5113827,28.7202246 C14.6210839,28.7122543 14.7348034,28.6991032 14.8368697,28.6999003 C15.168786,28.7046825 15.4729757,28.9027453 15.3612654,29.2622074 C15.3463974,29.3108264 15.3238946,29.3626336 15.3082231,29.4120497 C15.3210818,29.4240052 15.3379589,29.4271933 15.350014,29.4395473 C15.3918049,29.4833842 15.4327921,29.528018 15.4741812,29.5702608 C15.6674642,29.7754969 15.5866952,30.01381 15.4637335,30.2250238 C14.310063,32.1952906 12.1980143,34.9450561 9.74319965,36.2410326 C9.34538225,36.5694104 8.9829264,36.845981 8.67672756,37.0552023 C8.66627983,37.0898733 8.65101007,37.1257398 8.64337519,37.1608092 C8.63172195,37.2201882 8.59796775,37.2775746 8.55577499,37.33257 C8.93028592,39.9715478 9.67368207,42.5838251 10.7976167,45.1032479 C10.899683,44.9123584 10.992507,44.7079193 11.073276,44.4883366 C11.1789588,43.5195424 11.3846987,42.4128614 11.7005416,41.3850867 C11.7198297,41.285856 11.7399215,41.1866254 11.7676482,41.0854021 C11.8162703,40.904077 11.8994503,40.7163756 11.9991056,40.5250876 C12.5986445,39.010724 13.4854961,37.8625972 14.7062731,37.9415035 C14.8051247,37.8912904 14.9059855,37.8362951 15.0004169,37.7996316 C15.3082231,37.678084 15.6666605,37.7470274 15.7008166,38.1216331 C15.7052368,38.1714477 15.7052368,38.2276386 15.7084515,38.2794457 C15.7249267,38.286619 15.7418038,38.2822354 15.7578773,38.2894087 C15.8133306,38.3137182 15.8683821,38.3392232 15.9226299,38.3639313 C16.1798048,38.4806967 16.1966819,38.7309652 16.1641332,38.9728649 C15.8519068,41.2304622 14.9521966,44.5692355 13.1792972,46.6949238 C12.9369902,47.1480373 12.7071402,47.5397793 12.504615,47.8490283 C12.5082315,47.8852933 12.507026,47.9247465 12.514259,47.9586204 C12.533949,48.057054 12.5054186,48.1722254 12.450769,48.2846071 C13.8270565,50.5800635 15.5055244,52.6368084 17.4150479,54.4309308 C17.507872,54.1543602 17.5633253,53.8447127 17.598285,53.519523 C17.4664829,52.5543155 17.3973672,51.4300998 17.4544278,50.3576912 C17.4496058,50.2568665 17.4451856,50.1560417 17.4467929,50.0516303 C17.4496058,49.8635304 17.485771,49.6610839 17.5364023,49.4518626 C17.7513845,47.8390654 18.3320371,46.5124031 19.5363389,46.2983996 C19.6199207,46.2258696 19.7051099,46.1493544 19.7878881,46.0903739 C20.0567162,45.8990859 20.4219849,45.8795585 20.5449466,46.2366296 C20.5618237,46.283256 20.5754862,46.3382513 20.5911577,46.3884644 C20.6092404,46.38966 20.6241083,46.3820882 20.6425927,46.3856748 C20.7016626,46.3956377 20.7607324,46.4071947 20.8198023,46.4183532 C21.0986763,46.4697618 21.1746233,46.7092704 21.2011444,46.9523656 C21.4462642,49.2171363 21.3835779,52.6718779 20.1780706,55.1582239 C20.0535015,55.6563698 19.9249141,56.0919486 19.8035597,56.4402522 C19.805167,56.4442374 19.8063725,56.4478241 19.8071762,56.4514107 C22.1571117,58.2359687 24.7646239,59.6710275 27.5320668,60.7262998 C27.5284503,60.7183295 27.5256374,60.7103592 27.521619,60.7019903 C26.9023901,59.946004 26.2526217,59.0218437 25.7394775,58.0761635 C25.6820149,57.9928735 25.6257579,57.909185 25.5723138,57.8187217 C25.4766769,57.6569239 25.3995244,57.4652373 25.3340252,57.2611967 C24.671398,55.7723382 24.470882,54.340069 25.3866657,53.5350652 C25.4204199,53.4302553 25.4529686,53.3214602 25.4923485,53.2278088 C25.6213377,52.9253346 25.9231164,52.721294 26.2156528,52.9619981 C26.2550327,52.9930824 26.29602,53.0325356 26.3345962,53.067605 C26.3510715,53.0592362 26.35951,53.0456866 26.3771908,53.0385133 C26.4326441,53.0173919 26.4905085,52.9966691 26.5463637,52.9743521 C26.8099679,52.8759185 27.0024472,53.0405059 27.1519301,53.2337865 C28.5499167,55.041857 30.3087519,58.0247548 30.5836075,60.7701367 C30.7037564,61.1527127 30.7965805,61.4894594 30.8717237,61.7951217 C32.1833157,62.1374476 33.5210269,62.3905057 34.8728024,62.563462 C34.7819875,63.0990685 34.7711379,63.6486231 34.8446739,64.1615142 C33.484058,63.9873623 32.1463468,63.7327101 30.8403806,63.3919783 C30.4276952,64.1232565 29.4604766,64.765267 28.4257495,65.3239875 C27.5802871,65.9062205 26.5777069,66.4322626 25.6912572,66.7415116 C25.6462516,66.7678137 25.5964239,66.7965069 25.5566422,66.823606 C24.5436142,67.4919186 22.7920122,68.7603974 21.855333,67.3863116 C21.1987334,66.4226982 22.2157797,65.3471015 22.9925282,64.9135152 C24.661754,63.9813846 26.29602,63.420273 27.8217904,62.4359367 C24.6561283,61.2583197 21.7130832,59.587339 19.0975342,57.4867572 C18.3678005,57.9402693 17.1622932,57.9912794 15.9455346,57.9326975 C14.9176387,57.9936705 13.7852655,57.9251256 12.866669,57.731845 C12.8136267,57.7330406 12.7569678,57.7302509 12.707542,57.7330406 C11.4927925,57.7800655 9.33091617,57.9601951 9.25336187,56.3031625 C9.19710486,55.1418847 10.6300512,54.7477516 11.5205192,54.7784374 C13.2813635,54.8386135 14.8529431,55.1494565 16.5081046,55.1582239 C14.6074215,53.2501257 12.9406068,51.0845857 11.5566844,48.6998615 C10.738145,48.96089 9.56036438,48.7237725 8.39946088,48.377063 C7.3860311,48.1913542 6.3026819,47.854209 5.45802314,47.4481205 C5.40618633,47.4353679 5.35234034,47.4206228 5.30371821,47.4114569 C4.11307887,47.1671661 1.97209795,46.8256373 2.29718308,45.1980949 C2.52582763,44.0579385 4.01181625,44.0176883 4.86853009,44.2591895 C6.73224433,44.7860286 8.2973946,45.555963 10.1016371,45.9341553 C10.1084684,45.9293731 10.1136922,45.9225984 10.1197198,45.9178162 C8.91421249,43.2700709 8.12781991,40.4971914 7.73522638,37.6840617 C7.6287399,37.6613463 7.54596174,37.6011702 7.51260937,37.489187 C6.64665331,37.439771 5.63241986,36.7658791 4.67484525,35.9951478 C3.81130021,35.441608 2.93851295,34.7234808 2.31285467,34.0276706 C2.27066192,33.9961878 2.22525448,33.9619153 2.18426723,33.9356132 C1.17686499,33.2605259 -0.673990506,32.1375057 0.251839078,30.7554496" id="Fill-108" fill="#477186"></path>
        </g>
    </g>
</svg>